# xmcd
#
# Track frame offsets: 
#        182
#        16410
#        30447
#        48707
#        61445
#        78277
#        94935
#        116470
#        127317
#        143455
#
# Disc length: 2220 seconds
#
# Revision: 3
# Processed by: cddbd v1.5.1PL0 Copyright (c) Steve Scherf et al.
# Submitted via: ExactAudioCopy v0.95a5
#
DISCID=8208aa0a
DTITLE=Kris Kristofferson - Third World Warrior
DYEAR=1990
DGENRE=Country
TTITLE0=The Eagle And The Bear
TTITLE1=Third World Warrior
TTITLE2=Aguila Del Norte
TTITLE3=The Hero
TTITLE4=Don't Let The Bastards (Get You Down)
TTITLE5=Love Of Money
TTITLE6=Third World War
TTITLE7=Jesse Jackson
TTITLE8=Mal Sacate
TTITLE9=Sandinista
EXTD=(c)1989 Polygram/Mercury\nupc 042283462922\nMercury 834629-2\n
EXTT0=
EXTT1=
EXTT2=
EXTT3=
EXTT4=
EXTT5=
EXTT6=
EXTT7=
EXTT8=
EXTT9=
PLAYORDER=
